<svg xmlns="http://www.w3.org/2000/svg" viewBox="0 0 180 220">
  <defs>
    <linearGradient id="glass" x1="0" y1="0" x2="1" y2="1"><stop stop-color="#fff6b2" stop-opacity=".92"/><stop offset=".42" stop-color="#efad25" stop-opacity=".9"/><stop offset="1" stop-color="#9f5415" stop-opacity=".96"/></linearGradient>
    <linearGradient id="oil" x1="0" y1="0" x2="0" y2="1"><stop stop-color="#ffd85a"/><stop offset="1" stop-color="#d77813"/></linearGradient>
    <filter id="shadow" x="-30%" y="-30%" width="160%" height="170%"><feDropShadow dx="1" dy="7" stdDeviation="5" flood-color="#4b270f" flood-opacity=".42"/></filter>
    <filter id="rough"><feTurbulence baseFrequency=".025" numOctaves="2" seed="7" result="n"/><feDisplacementMap in="SourceGraphic" in2="n" scale="2"/></filter>
  </defs>
  <g filter="url(#shadow)" transform="rotate(18 90 110)">
    <path d="M74 22h32v26l16 14c10 9 15 22 15 36v83c0 15-12 27-27 27H70c-15 0-27-12-27-27V98c0-14 5-27 15-36l16-14z" fill="url(#glass)" stroke="#70431c" stroke-width="6" filter="url(#rough)"/>
    <path d="M49 137c19 10 65 13 82-2v48c0 11-9 19-20 19H69c-11 0-20-8-20-19z" fill="url(#oil)" opacity=".9"/>
    <rect x="70" y="12" width="40" height="31" rx="8" fill="#d85d20" stroke="#743116" stroke-width="5"/>
    <path d="M78 14V2h58c8 0 14 6 14 14v8h-15v-7H94v5z" fill="#f08328" stroke="#743116" stroke-width="5" stroke-linejoin="round"/>
    <path d="M150 18l20 8-5 12-18-7z" fill="#f4a33b" stroke="#743116" stroke-width="4"/>
    <ellipse cx="90" cy="95" rx="27" ry="34" fill="#fff7ce" opacity=".33"/>
    <path d="M69 71c-9 19-10 57-5 76" fill="none" stroke="#fff8d6" stroke-width="7" stroke-linecap="round" opacity=".7"/>
    <path d="M70 115h40" stroke="#70431c" stroke-width="4" opacity=".28"/>
    <path d="M72 129h36" stroke="#70431c" stroke-width="4" opacity=".28"/>
  </g>
  <path d="M164 40c2 9-1 16-8 21" fill="none" stroke="#f7c447" stroke-width="7" stroke-linecap="round" opacity=".9"/>
  <circle cx="154" cy="66" r="5" fill="#f7c447"/>
</svg>
