<svg xmlns="http://www.w3.org/2000/svg" viewBox="0 0 320 320"><defs><filter id="r"><feTurbulence baseFrequency=".035" numOctaves="2" seed="4" result="n"/><feDisplacementMap in="SourceGraphic" in2="n" scale="3"/></filter><linearGradient id="g"><stop stop-color="#91bf4c"/><stop offset="1" stop-color="#316d2d"/></linearGradient></defs><g filter="url(#r)" stroke="#285a28" stroke-width="3" stroke-linecap="round"><path d="M52 76l89 111"/><path d="M95 50l71 97"/><path d="M152 45l-25 121"/><path d="M210 58l-67 135"/><path d="M266 83l-98 124"/><path d="M274 147l-116 83"/><path d="M51 177l112 61"/></g><g fill="url(#g)" opacity=".95"><rect x="55" y="69" width="18" height="93" rx="7" transform="rotate(-40 64 115)"/><rect x="114" y="54" width="17" height="105" rx="7" transform="rotate(-34 122 106)"/><rect x="145" y="45" width="18" height="112" rx="7" transform="rotate(12 154 101)"/><rect x="191" y="57" width="18" height="126" rx="7" transform="rotate(27 200 120)"/><rect x="227" y="78" width="19" height="130" rx="7" transform="rotate(39 236 143)"/><rect x="219" y="139" width="18" height="119" rx="7" transform="rotate(56 228 198)"/><rect x="92" y="157" width="17" height="116" rx="7" transform="rotate(-62 101 215)"/></g><g fill="#b7d55c"><circle cx="87" cy="113" r="7"/><circle cx="173" cy="92" r="6"/><circle cx="214" cy="188" r="8"/></g></svg>
